# xmcd
#
# Track frame offsets:
#   150
#   14557
#   42273
#   62274
#   79510
#   98800
#   119316
#   134331
#   149788
#   166960
#   182637
#   197325
#
# Disc length: 2788 seconds
#
# Revision: 0
# Processed by: cddbd v1.4PL0 Copyright (c) Steve Scherf et al.
# Submitted via: uFREEDB 1.6.0
#
DISCID=9d0ae20c
DTITLE=Mellencamp, Jphn - Trouble No More
DYEAR=2003
DGENRE=Blues
TTITLE0=Stones In My Passway
TTITLE1=Death Letter
TTITLE2=Johnny Hart
TTITLE3=Baltimore Oriole
TTITLE4=Teardrops Will Fall
TTITLE5=Diamond Joe
TTITLE6=The End Of The World
TTITLE7=Down In The Bottom
TTITLE8=Lafayette
TTITLE9=Joliet Bound
TTITLE10=John The Revelator
TTITLE11=To Washington
EXTD=
EXTT0=
EXTT1=
EXTT2=
EXTT3=
EXTT4=
EXTT5=
EXTT6=
EXTT7=
EXTT8=
EXTT9=
EXTT10=
EXTT11=
PLAYORDER=
